<svg xmlns="http://www.w3.org/2000/svg" width="142" height="142">
<g>
<path d="m71.151 90.676c-0.402 2.46 -0.68 4.68 -1.57 6.735c-4.139 9.6 -11.19 15.46 -21.77 16.623c-12.499 1.38 -24.04 -6.34 -27.51 -18.317c-1.258 -4.34 -1.13 -8.77 -0.68 -13.187c0.487 -4.72 1.88 -9.2 4.05 -13.424c0.311 -0.6 0.3 -1.06 -0.08 -1.645c-3.335 -5.02 -4.63 -10.56 -4.16 -16.537c0.251 -3.2 1.03 -6.26 2.48 -9.118c4.248 -8.39 13.58 -15.51 26.07 -14.328c10.984 1.04 21.16 10.51 22.75 21.17c0.08 0.54 0.23 1.06 0.41 1.849c0.263 -1.43 0.45 -2.61 0.7 -3.776c2.046 -9.68 11.52 -19.81 24.95 -19.936c13.614 -0.13 23.7 10.55 25.6 20.468c0.804 4.19 0.66 8.38 0 12.563c-0.663 4.18 -1.89 8.2 -3.69 12.031c-0.396 0.85 -0.35 1.45 0.15 2.238c2.932 4.54 4.23 9.53 4.06 14.949c-0.347 11.3 -8.34 21.44 -19.34 24.090c-15.355 3.7 -27.12 -5.48 -31.09 -16.593c-0.646 -1.81 -0.95 -3.7 -1.33 -5.852zm27.896 -19.858c0.164 -0.64 0.66 -1.02 1.01 -1.495c3.85 -5.12 5.88 -10.83 5.42 -17.266c-0.329 -4.7 -4.19 -8.01 -8.87 -7.830c-4.679 0.17 -8.2 3.78 -8.27 8.466c-0.005 0.38 0.02 0.77 -0.01 1.148c-0.322 4.99 -3.07 7.72 -7.25 8.028c-0.762 0.06 -1.53 0.12 -2.29 0.126c-5.415 0.01 -10.83 0.01 -16.24 0.005c-2.365 -0 -4.71 0.26 -6.96 0.95c-10.513 3.24 -16.64 10.43 -18.67 21.148c-0.402 2.12 -0.76 4.32 -0.07 6.498c0.997 3.12 2.86 5.45 6.15 6.223c3.411 0.81 6.38 -0.09 8.74 -2.765c1.526 -1.73 2.01 -3.79 2.12 -6.049c0.295 -5.81 3.46 -8.71 8.74 -8.670c8.094 0.07 16.19 0.01 24.28 0.020c1.437 0 1.45 0.02 1.46 1.441c0.014 2.62 -0.07 5.25 0.03 7.875c0.165 4.28 3.93 7.84 8.3 7.963c4.502 0.13 8.52 -3.2 8.81 -7.548c0.253 -3.76 0.24 -7.55 -0.01 -11.313c-0.191 -2.92 -1.77 -4.99 -4.44 -6.198c-0.641 -0.29 -1.31 -0.5 -1.98 -0.757zm-50.739 -8.831c1.741 0 3.16 -0.02 4.58 0.007c0.704 0.01 0.96 -0.29 0.96 -0.982c-0.023 -2.73 0.12 -5.47 -0.06 -8.192c-0.23 -3.59 -2.14 -6.19 -5.48 -7.494c-3.427 -1.34 -6.56 -0.58 -9.21 1.955c-2.664 2.54 -3.02 5.65 -2.09 9.057c0.856 3.13 2.88 4.9 6.06 5.442c1.848 0.31 3.71 0.16 5.24 0.207z" fill="#FFFFFF"/>
<path opacity="0" d="m99.047 70.818c0.67 0.25 1.34 0.47 1.99 0.758c2.672 1.21 4.25 3.28 4.44 6.198c0.246 3.76 0.26 7.55 0.01 11.313c-0.293 4.35 -4.31 7.68 -8.81 7.548c-4.365 -0.12 -8.13 -3.68 -8.3 -7.963c-0.101 -2.62 -0.02 -5.25 -0.03 -7.875c-0.008 -1.42 -0.02 -1.44 -1.46 -1.441c-8.095 -0.01 -16.19 0.05 -24.28 -0.02c-5.276 -0.04 -8.44 2.86 -8.74 8.670c-0.115 2.26 -0.6 4.32 -2.12 6.049c-2.36 2.68 -5.33 3.57 -8.74 2.765c-3.291 -0.78 -5.15 -3.1 -6.15 -6.223c-0.695 -2.18 -0.33 -4.38 0.07 -6.498c2.03 -10.71 8.16 -17.9 18.67 -21.148c2.252 -0.69 4.6 -0.95 6.96 -0.95c5.415 0.01 10.83 0.01 16.24 -0.004c0.763 -0 1.53 -0.07 2.29 -0.126c4.172 -0.3 6.92 -3.04 7.25 -8.028c0.025 -0.38 0 -0.77 0.01 -1.148c0.066 -4.68 3.59 -8.29 8.27 -8.466c4.676 -0.17 8.54 3.13 8.87 7.830c0.45 6.44 -1.57 12.15 -5.42 17.266c-0.357 0.47 -0.85 0.85 -1.02 1.493z" fill="#FB7A24"/>
<path opacity="0" d="m48.308 61.987c-1.533 -0.04 -3.39 0.1 -5.24 -0.207c-3.181 -0.54 -5.2 -2.31 -6.06 -5.442c-0.931 -3.4 -0.58 -6.51 2.09 -9.057c2.652 -2.53 5.79 -3.3 9.21 -1.955c3.342 1.31 5.25 3.9 5.48 7.494c0.174 2.72 0.03 5.46 0.06 8.192c0.006 0.69 -0.26 0.99 -0.96 0.982c-1.42 -0.02 -2.84 -0.01 -4.58 -0.007z" fill="#FB7A24"/>
</g>
</svg>
